<svg xmlns="http://www.w3.org/2000/svg" xmlns:xlink="http://www.w3.org/1999/xlink" viewBox="0 0 27.99 25.48"><defs><radialGradient id="radial-gradient" cx="-6.23" cy="-5.21" r="54.86" gradientUnits="userSpaceOnUse"><stop offset="0" stop-color="#00acc3"/><stop offset="1" stop-color="#0428d9"/></radialGradient></defs><g id="Layer_2" data-name="Layer 2"><g id="Layer_1-2" data-name="Layer 1"><path d="M6.32,11c2.13,2.55,5.53,2.81,7.83-.1a4.52,4.52,0,0,0,2.42,1.75,4.22,4.22,0,0,0,4.56-1.39c.24-.27.33-.28.59,0a4.08,4.08,0,0,0,4.05,1.39c.38-.1.27.18.27.34,0,2,0,4.05,0,6.07v4.26a2.05,2.05,0,0,1-2.15,2.19q-9.82,0-19.65,0a2.06,2.06,0,0,1-2.2-2.19c0-3.4,0-6.79,0-10.18,0-.26,0-.48.37-.42a3.82,3.82,0,0,0,3.76-1.49C6.19,11.12,6.25,11.06,6.32,11Zm-.05,8.47c0,1.57,0,3.14,0,4.71,0,.32,0,.47.42.46,2,0,3.91,0,5.87,0,.38,0,.43-.15.43-.47,0-3.14,0-6.28,0-9.42,0-.36-.12-.45-.46-.44-1.94,0-3.88,0-5.81,0-.36,0-.45.11-.45.46C6.28,16.31,6.27,17.88,6.27,19.45ZM22,17.2c0-.71,0-1.41,0-2.11s-.2-.79-.77-.79H17c-.56,0-.76.2-.76.75V19.3c0,.56.16.73.71.73h4.31c.54,0,.71-.19.72-.73C22,18.6,22,17.9,22,17.2Z" style="fill:url(#radial-gradient)"/><path d="M13.6,4c0,1.2,0,2.41,0,3.61,0,.3-.09.4-.4.4C11.39,8,9.57,8,7.75,8c-.28,0-.36-.07-.3-.38.46-2.41.9-4.82,1.34-7.23C8.84.14,8.94,0,9.27,0c1.3,0,2.61,0,3.91,0,.37,0,.43.14.43.47C13.59,1.66,13.6,2.85,13.6,4Z" style="fill:url(#radial-gradient)"/><path d="M3.34,8H.73C.43,8,.35,8,.47,7.67,1.3,5.45,2.11,3.22,2.94,1A1.37,1.37,0,0,1,4.36,0c1,0,2.07,0,3.1,0,.33,0,.39.07.33.39Q7.1,4,6.44,7.65c-.05.32-.2.4-.5.39C5.07,8,4.2,8,3.34,8Z" style="fill:url(#radial-gradient)"/><path d="M17.54,8H15c-.27,0-.38-.08-.38-.37q0-3.64,0-7.27c0-.33.13-.39.42-.39,1.23,0,2.47,0,3.7,0,.31,0,.4.11.45.39.43,2.43.86,4.86,1.32,7.29.06.34-.09.36-.34.35Z" style="fill:url(#radial-gradient)"/><path d="M24.55,8c-.87,0-1.74,0-2.61,0-.28,0-.4-.08-.45-.37-.43-2.45-.88-4.9-1.33-7.35-.05-.26,0-.32.27-.32h2.71a1.14,1.14,0,0,1,1.1.73l3.21,6.9c.15.3.11.4-.25.4-.88,0-1.77,0-2.65,0Z" style="fill:url(#radial-gradient)"/><path d="M10.4,9h2.8c.3,0,.39.07.42.39a1.75,1.75,0,0,1-.61,1.5,4,4,0,0,1-5.27.32,1.4,1.4,0,0,1-.66-1.6c.12-.48.27-.64.76-.62C8.69,9,9.55,9,10.4,9Z" style="fill:url(#radial-gradient)"/><path d="M17.68,9c.88,0,1.77,0,2.65,0,.3,0,.36.12.45.38a1.4,1.4,0,0,1-.63,1.71,3.83,3.83,0,0,1-5.34-.62c-.34-.42-.19-.89-.17-1.34,0-.18.25-.11.38-.11Z" style="fill:url(#radial-gradient)"/><path d="M24.89,9h2.75c.33,0,.41.1.31.41a3.37,3.37,0,0,1-2.7,2.45A3.49,3.49,0,0,1,22,10.32a3,3,0,0,1-.25-1.17c0-.24.18-.17.32-.17Z" style="fill:url(#radial-gradient)"/><path d="M3.12,9C4.05,9,5,9,5.92,9c.32,0,.4.08.33.4a3.25,3.25,0,0,1-3.16,2.44A3.22,3.22,0,0,1,0,9.36C-.06,9,.05,9,.37,9,1.29,9,2.2,9,3.12,9Z" style="fill:url(#radial-gradient)"/></g></g></svg>